<svg width="50" height="50" viewBox="0 0 50 50" fill="none" xmlns="http://www.w3.org/2000/svg">
<path d="M29.359 10.7609C29.041 10.8187 28.5495 10.9922 27.8845 11.2813C27.2339 11.5849 26.5834 12.062 25.9328 12.7125C25.1667 13.4787 24.7547 14.2232 24.6968 14.946C24.6535 15.6833 24.9281 16.4784 25.5208 17.3313C26.1136 18.1843 26.9882 19.189 28.1447 20.3455L36.2114 28.4122L33.2189 31.4046L25.3907 23.5765C24.2342 22.42 23.244 21.2996 22.4199 20.2154C21.5959 19.1312 21.0249 18.0542 20.7069 16.9844C20.3888 15.9146 20.425 14.8087 20.8153 13.6666C21.1911 12.539 22.0079 11.3464 23.2656 10.0887C23.9596 9.39476 24.6607 8.85265 25.369 8.46232C26.0774 8.072 26.8219 7.80456 27.6026 7.65999L29.359 10.7609Z" fill="black"/>
<path d="M21.1858 40.1985C21.5039 40.1407 21.9954 39.9672 22.6604 39.6781C23.3109 39.3745 23.9615 38.8974 24.612 38.2469C25.3782 37.4807 25.7902 36.7362 25.848 36.0134C25.8914 35.2761 25.6167 34.481 25.024 33.6281C24.4313 32.7751 23.5567 31.7704 22.4002 30.6139L14.3335 22.5472L17.326 19.5548L25.1541 27.3829C26.3106 28.5394 27.3009 29.6598 28.1249 30.744C28.9489 31.8282 29.52 32.9052 29.838 33.975C30.156 35.0448 30.1199 36.1507 29.7296 37.2928C29.3537 38.4204 28.5369 39.613 27.2792 40.8707C26.5853 41.5646 25.8842 42.1067 25.1758 42.4971C24.4674 42.8874 23.7229 43.1548 22.9423 43.2994L21.1858 40.1985Z" fill="black"/>
</svg>
